<svg xmlns="http://www.w3.org/2000/svg" width="860" viewBox="0 0 860 828" role="img">
    <title>CodeClone pipeline</title>
    <desc>Deterministic CodeClone pipeline from source discovery and cache reuse to a canonical report that powers
        gates, projections, and the Structural Change Controller with Engineering Memory.
    </desc>

    <style>
        .box-gray { fill: #F1EFE8; stroke: #888780; }
        .box-purple { fill: #ECEBFF; stroke: #4F46E5; }
        .box-teal { fill: #E1F5EE; stroke: #0F6E56; }
        .box-amber { fill: #FAEEDA; stroke: #854F0B; }

        .t-gray { fill: #444441; }
        .t-purple { fill: #3730A3; }
        .t-teal { fill: #085041; }
        .t-amber { fill: #633806; }

        .note { fill: #6B6A65; }
        .arr { stroke: #888780; stroke-width: 1.5; fill: none; }
        .arr-purple { stroke: #4F46E5; stroke-width: 1.5; fill: none; }

        .lbl { font: 600 14px/1 'JetBrains Mono', monospace; }
        .sub { font: 400 12px/1 'JetBrains Mono', monospace; }
        .tiny { font: 400 11px/1 'JetBrains Mono', monospace; }

        @media (prefers-color-scheme: dark) {
        .box-gray { fill: #444441; stroke: #B4B2A9; }
        .box-purple { fill: #252158; stroke: #6366F1; }
        .box-teal { fill: #085041; stroke: #5DCAA5; }
        .box-amber { fill: #633806; stroke: #EF9F27; }

        .t-gray { fill: #D3D1C7; }
        .t-purple { fill: #DCD9FF; }
        .t-teal { fill: #9FE1CB; }
        .t-amber { fill: #FAC775; }

        .note { fill: #C8C6BC; }
        .arr { stroke: #B4B2A9; }
        .arr-purple { stroke: #6366F1; }
        }
    </style>

    <defs>
        <marker id="arr" viewBox="0 0 10 10" refX="8" refY="5" markerWidth="6" markerHeight="6" orient="auto">
            <path d="M2 1L8 5L2 9" fill="none" stroke="context-stroke" stroke-width="1.5"/>
        </marker>
    </defs>

    <!-- Main deterministic spine -->
    <rect x="295" y="34" width="270" height="58" rx="10" class="box-gray"/>
    <text x="430" y="57" text-anchor="middle" class="lbl t-gray">Source + config</text>
    <text x="430" y="75" text-anchor="middle" class="sub note">files · CLI · pyproject</text>

    <line x1="430" y1="92" x2="430" y2="114" class="arr" marker-end="url(#arr)"/>

    <rect x="295" y="116" width="270" height="58" rx="10" class="box-gray"/>
    <text x="430" y="139" text-anchor="middle" class="lbl t-gray">Discover + cache</text>
    <text x="430" y="157" text-anchor="middle" class="sub note">sorted scan · compatible facts</text>

    <line x1="430" y1="174" x2="430" y2="196" class="arr" marker-end="url(#arr)"/>

    <rect x="295" y="198" width="270" height="58" rx="10" class="box-purple"/>
    <text x="430" y="221" text-anchor="middle" class="lbl t-purple">Process misses</text>
    <text x="430" y="239" text-anchor="middle" class="sub note">parallel or sequential workers</text>

    <line x1="430" y1="256" x2="430" y2="278" class="arr-purple" marker-end="url(#arr)"/>

    <rect x="295" y="280" width="270" height="76" rx="10" class="box-purple"/>
    <text x="430" y="303" text-anchor="middle" class="lbl t-purple">Extract facts</text>
    <text x="430" y="322" text-anchor="middle" class="sub note">AST/CFG · clone units</text>
    <text x="430" y="340" text-anchor="middle" class="sub note">refs · reachability · security/API</text>

    <line x1="430" y1="356" x2="430" y2="378" class="arr-purple" marker-end="url(#arr)"/>

    <rect x="295" y="380" width="270" height="58" rx="10" class="box-purple"/>
    <text x="430" y="403" text-anchor="middle" class="lbl t-purple">Group + policy</text>
    <text x="430" y="421" text-anchor="middle" class="sub note">clones · findings · suppressions</text>

    <line x1="430" y1="438" x2="430" y2="460" class="arr" marker-end="url(#arr)"/>

    <rect x="295" y="462" width="270" height="76" rx="10" class="box-teal"/>
    <text x="430" y="485" text-anchor="middle" class="lbl t-teal">Project metrics</text>
    <text x="430" y="504" text-anchor="middle" class="sub note">health · deps · dead code</text>
    <text x="430" y="522" text-anchor="middle" class="sub note">coverage join · suggestions</text>

    <line x1="430" y1="538" x2="430" y2="560" class="arr" marker-end="url(#arr)"/>

    <rect x="295" y="562" width="270" height="62" rx="10" class="box-teal"/>
    <text x="430" y="586" text-anchor="middle" class="lbl t-teal">Canonical report</text>
    <text x="430" y="604" text-anchor="middle" class="sub note">one JSON truth · facts only</text>

    <!-- Persistence sidecars -->
    <rect x="610" y="112" width="190" height="66" rx="10" class="box-gray"/>
    <text x="705" y="136" text-anchor="middle" class="lbl t-gray">Cache</text>
    <text x="705" y="154" text-anchor="middle" class="sub note">optimization only</text>
    <text x="705" y="170" text-anchor="middle" class="tiny note">never analysis truth</text>
    <line x1="610" y1="145" x2="565" y2="145" class="arr" marker-end="url(#arr)"/>

    <!-- Updated cache: height increased 66→76 to fit split tiny line -->
    <rect x="610" y="284" width="190" height="76" rx="10" class="box-gray"/>
    <text x="705" y="306" text-anchor="middle" class="lbl t-gray">Updated cache</text>
    <text x="705" y="323" text-anchor="middle" class="sub note">fresh file facts</text>
    <text x="705" y="338" text-anchor="middle" class="tiny note">stats · reachability</text>
    <text x="705" y="351" text-anchor="middle" class="tiny note">surfaces · signals</text>
    <line x1="565" y1="318" x2="610" y2="318" class="arr" marker-end="url(#arr)"/>

    <!-- Governance and projection branches -->
    <rect x="60" y="544" width="205" height="64" rx="10" class="box-gray"/>
    <text x="162" y="568" text-anchor="middle" class="lbl t-gray">Baselines</text>
    <text x="162" y="586" text-anchor="middle" class="sub note">trusted diff state</text>
    <text x="162" y="602" text-anchor="middle" class="tiny note">clone + metrics snapshots</text>

    <rect x="60" y="638" width="205" height="64" rx="10" class="box-amber"/>
    <text x="162" y="662" text-anchor="middle" class="lbl t-amber">Gates</text>
    <text x="162" y="680" text-anchor="middle" class="sub note">diff · metrics · exit code</text>

    <rect x="595" y="638" width="205" height="64" rx="10" class="box-teal"/>
    <text x="697" y="662" text-anchor="middle" class="lbl t-teal">Projections</text>
    <text x="697" y="680" text-anchor="middle" class="sub note">CLI · HTML · MCP · IDE</text>
    <text x="697" y="696" text-anchor="middle" class="tiny note">JSON · MD · SARIF · TXT</text>

    <line x1="162" y1="608" x2="162" y2="638" class="arr" marker-end="url(#arr)"/>
    <path d="M390 624 C340 645 286 660 265 670" class="arr" marker-end="url(#arr)"/>
    <path d="M470 624 C520 645 574 660 595 670" class="arr" marker-end="url(#arr)"/>

    <!-- Agent workflow: the Structural Change Controller + Engineering Memory consume the canonical report -->
    <line x1="430" y1="624" x2="430" y2="714" class="arr-purple" marker-end="url(#arr)"/>
    <rect x="280" y="716" width="300" height="74" rx="10" class="box-purple"/>
    <text x="430" y="740" text-anchor="middle" class="lbl t-purple">Structural Change Controller</text>
    <text x="430" y="759" text-anchor="middle" class="sub note">intent · blast radius · verify · receipt</text>
    <text x="430" y="776" text-anchor="middle" class="sub note">+ Engineering Memory</text>

    <text x="430" y="812" text-anchor="middle" class="sub note">One canonical report powers local review, CI, IDE clients, and agent workflows.</text>
</svg>
